<svg xmlns="http://www.w3.org/2000/svg" width="1450" height="232" fill="none" viewBox="0 0 1450 232">
    <rect width="22.026" height="26.638" x=".375" y="-.375" fill="#ff4f5e" stroke="#ff4f5e" stroke-linecap="round" stroke-width=".751" rx=".375" transform="matrix(1 0 0 -1 1257.6 173.227)"/>
    <path stroke="#ff4f5e" stroke-linecap="round" stroke-width=".751" d="M1268.095 182.914v-56.218"/>
    <rect width="22.026" height="25.901" x=".375" y="-.375" fill="#ff4f5e" stroke="#ff4f5e" stroke-linecap="round" stroke-width=".751" rx=".375" transform="matrix(1 0 0 -1 1422.1 69.178)"/>
    <path stroke="#ff4f5e" stroke-linecap="round" stroke-width=".751" d="M1432.595 94.572V.375"/>
    <rect width="22.026" height="40.53" x="1247.1" y="162.273" fill="#2ecf7a" stroke="#2ecf7a" stroke-linecap="round" stroke-width=".751" rx=".375" transform="rotate(180 1247.1 162.273)"/>
    <path stroke="#2ecf7a" stroke-linecap="round" stroke-width=".751" d="M1236.97 176.309V91.194"/>
    <rect width="22.026" height="61.568" x="-.375" y=".375" fill="#2ecf7a" stroke="#2ecf7a" stroke-linecap="round" stroke-width=".751" rx=".375" transform="matrix(-1 0 0 1 819.026 84.761)"/>
    <path stroke="#2ecf7a" stroke-linecap="round" stroke-width=".751" d="M809.285 63.948v128.873"/>
    <rect width="22.026" height="40.53" x="-.375" y=".375" fill="#2ecf7a" stroke="#2ecf7a" stroke-linecap="round" stroke-width=".751" rx=".375" transform="matrix(-1 0 0 1 1082.22 83.388)"/>
    <path stroke="#2ecf7a" stroke-linecap="round" stroke-width=".751" d="M1072.475 69.728v85.115"/>
    <rect width="22.026" height="40.53" x="-.375" y=".375" fill="#2ecf7a" stroke="#2ecf7a" stroke-linecap="round" stroke-width=".751" rx=".375" transform="matrix(-1 0 0 1 983.521 79.26)"/>
    <path stroke="#2ecf7a" stroke-linecap="round" stroke-width=".751" d="M973.779 65.6v85.115"/>
    <rect width="22.026" height="57.599" x="-.375" y=".375" fill="#2ecf7a" stroke="#2ecf7a" stroke-linecap="round" stroke-width=".751" rx=".375" transform="matrix(-1 0 0 1 1049.32 79.284)"/>
    <path stroke="#2ecf7a" stroke-linecap="round" stroke-width=".751" d="M1037.8 59.82v90.894"/>
    <rect width="22.026" height="101.229" x="-.375" y=".375" fill="#2ecf7a" stroke="#2ecf7a" stroke-linecap="round" stroke-width=".751" rx=".375" transform="matrix(-1 0 0 1 851.927 52.837)"/>
    <path stroke="#2ecf7a" stroke-linecap="round" stroke-width=".751" d="M840.394 18.539V177.96"/>
    <rect width="22.026" height="40.53" x="-.375" y=".375" fill="#ff4f5e" stroke="#ff4f5e" stroke-linecap="round" stroke-width=".751" rx=".375" transform="matrix(-1 0 0 1 1213.82 87.517)"/>
    <path stroke="#ff4f5e" stroke-linecap="round" stroke-width=".751" d="M1204.075 73.855v85.115"/>
    <rect width="22.026" height="9.966" x="-.375" y=".375" fill="#2ecf7a" stroke="#2ecf7a" stroke-linecap="round" stroke-width=".751" rx=".375" transform="matrix(-1 0 0 1 786.132 125.836)"/>
    <path stroke="#2ecf7a" stroke-linecap="round" stroke-width=".751" d="M776.383 122.568v21.541"/>
    <rect width="22.026" height="9.966" x="-.375" y=".375" fill="#2ecf7a" stroke="#2ecf7a" stroke-linecap="round" stroke-width=".751" rx=".375" transform="matrix(-1 0 0 1 1180.92 76.298)"/>
    <path stroke="#2ecf7a" stroke-linecap="round" stroke-width=".751" d="M1171.175 73.03v21.541"/>
    <rect width="22.026" height="17.111" x="-.375" y=".375" fill="#2ecf7a" stroke="#2ecf7a" stroke-linecap="round" stroke-width=".751" rx=".375" transform="matrix(-1 0 0 1 1345.42 63.867)"/>
    <path stroke="#2ecf7a" stroke-linecap="round" stroke-width=".751" d="M1335.675 58.169v36.403"/>
    <rect width="22.026" height="85.088" x="-.375" y=".375" fill="#ff4f5e" stroke="#ff4f5e" stroke-linecap="round" stroke-width=".751" rx=".375" transform="matrix(-1 0 0 1 1312.52 61.948)"/>
    <path stroke="#ff4f5e" stroke-linecap="round" stroke-width=".751" d="M1302.775 40.005v107.407"/>
    <rect width="22.026" height="31.357" x="-.375" y=".375" fill="#ff4f5e" stroke="#ff4f5e" stroke-linecap="round" stroke-width=".751" rx=".375" transform="matrix(-1 0 0 1 1148.02 79.352)"/>
    <path stroke="#ff4f5e" stroke-linecap="round" stroke-width=".751" d="M1138.275 71.379v39.705"/>
    <rect width="22.026" height="31.357" x="-.375" y=".375" fill="#ff4f5e" stroke="#ff4f5e" stroke-linecap="round" stroke-width=".751" rx=".375" transform="matrix(-1 0 0 1 1016.42 85.13)"/>
    <path stroke="#ff4f5e" stroke-linecap="round" stroke-width=".751" d="M1006.675 77.158v39.705"/>
    <rect width="22.026" height="21.141" x="731.582" y="125.871" fill="#ff4f5e" stroke="#ff4f5e" stroke-linecap="round" stroke-width=".751" rx=".375"/>
    <path stroke="#ff4f5e" stroke-linecap="round" stroke-width=".751" d="M741.7 127.184v26.832"/>
    <rect width="22.026" height="21.141" x="1093.47" y="92.02" fill="#ff4f5e" stroke="#ff4f5e" stroke-linecap="round" stroke-width=".751" rx=".375"/>
    <path stroke="#ff4f5e" stroke-linecap="round" stroke-width=".751" d="M1103.6 93.334v26.832"/>
    <rect width="22.026" height="38.029" x="863.17" y="73.856" fill="#ff4f5e" stroke="#ff4f5e" stroke-linecap="round" stroke-width=".751" rx=".375"/>
    <path stroke="#ff4f5e" stroke-linecap="round" stroke-width=".751" d="M873.293 76.183v48.111"/>
    <rect width="22.026" height="21.141" x="896.071" y="87.892" fill="#ff4f5e" stroke="#ff4f5e" stroke-linecap="round" stroke-width=".751" rx=".375"/>
    <path stroke="#ff4f5e" stroke-linecap="round" stroke-width=".751" d="M906.196 89.205v26.833"/>
    <rect width="22.026" height="21.141" x=".375" y="-.375" fill="#ff4f5e" stroke="#ff4f5e" stroke-linecap="round" stroke-width=".751" rx=".375" transform="matrix(1 0 0 -1 928.596 109.057)"/>
    <path stroke="#ff4f5e" stroke-linecap="round" stroke-width=".751" d="M939.096 108.119V81.286"/>
    <rect width="22.026" height="35.735" x=".375" y="-.375" fill="#ff4f5e" stroke="#ff4f5e" stroke-linecap="round" stroke-width=".751" rx=".375" transform="matrix(1 0 0 -1 1356.3 63.923)"/>
    <path stroke="#ff4f5e" stroke-linecap="round" stroke-width=".751" d="M1366.795 62.109V16.887"/>
    <rect width="22.026" height="21.141" x=".375" y="-.375" fill="#2ecf7a" stroke="#2ecf7a" stroke-linecap="round" stroke-width=".751" rx=".375" transform="matrix(1 0 0 -1 1389.2 80.986)"/>
    <path stroke="#2ecf7a" stroke-linecap="round" stroke-width=".751" d="M1399.695 80.049V53.216"/>
    <rect width="22.026" height="40.53" x="-.375" y=".375" fill="#2ecf7a" stroke="#2ecf7a" stroke-linecap="round" stroke-width=".751" rx=".375" transform="matrix(-1 0 0 1 619.228 132.512)"/>
    <path stroke="#2ecf7a" stroke-linecap="round" stroke-width=".751" d="M609.479 118.852v85.115"/>
    <rect width="22.026" height="40.53" x="268.575" y="127.934" fill="#2ecf7a" stroke="#2ecf7a" stroke-linecap="round" stroke-width=".751" rx=".375"/>
    <path stroke="#2ecf7a" stroke-linecap="round" stroke-width=".751" d="M278.7 113.898v85.115"/>
    <rect width="22.026" height="40.53" x="38.274" y="67.663" fill="#ff4f5e" stroke="#ff4f5e" stroke-linecap="round" stroke-width=".751" rx=".375"/>
    <path stroke="#ff4f5e" stroke-linecap="round" stroke-width=".751" d="M48.399 53.628v85.114"/>
    <rect width="22.026" height="57.599" x="5.375" y="45.395" fill="#ff4f5e" stroke="#ff4f5e" stroke-linecap="round" stroke-width=".751" rx=".375"/>
    <path stroke="#ff4f5e" stroke-linecap="round" stroke-width=".751" d="M17.281 25.556v90.894"/>
    <rect width="22.026" height="18.699" x="-.375" y=".375" fill="#ff4f5e" stroke="#ff4f5e" stroke-linecap="round" stroke-width=".751" rx=".375" transform="matrix(-1 0 0 1 682.493 134.171)"/>
    <path stroke="#ff4f5e" stroke-linecap="round" stroke-width=".751" d="M672.744 127.934v39.705"/>
    <rect width="22.026" height="40.53" x="-.375" y=".375" fill="#ff4f5e" stroke="#ff4f5e" stroke-linecap="round" stroke-width=".751" rx=".375" transform="matrix(-1 0 0 1 454.728 107.743)"/>
    <path stroke="#ff4f5e" stroke-linecap="round" stroke-width=".751" d="M444.979 94.083v85.115"/>
    <rect width="22.026" height="61.568" x="400.178" y="60.781" fill="#ff4f5e" stroke="#ff4f5e" stroke-linecap="round" stroke-width=".751" rx=".375"/>
    <path stroke="#ff4f5e" stroke-linecap="round" stroke-width=".751" d="M410.301 39.592v128.873"/>
    <rect width="22.026" height="40.53" x="104.077" y="89.955" fill="#ff4f5e" stroke="#ff4f5e" stroke-linecap="round" stroke-width=".751" rx=".375"/>
    <path stroke="#ff4f5e" stroke-linecap="round" stroke-width=".751" d="M114.2 75.919v85.115"/>
    <rect width="22.026" height="9.966" x="-.375" y=".375" fill="#ff4f5e" stroke="#ff4f5e" stroke-linecap="round" stroke-width=".751" rx=".375" transform="matrix(-1 0 0 1 652.128 141.11)"/>
    <path stroke="#ff4f5e" stroke-linecap="round" stroke-width=".751" d="M642.381 137.841v21.541"/>
    <rect width="22.026" height="9.966" x="-.375" y=".375" fill="#2ecf7a" stroke="#2ecf7a" stroke-linecap="round" stroke-width=".751" rx=".375" transform="matrix(-1 0 0 1 553.429 157.623)"/>
    <path stroke="#2ecf7a" stroke-linecap="round" stroke-width=".751" d="M543.68 154.354v21.541"/>
    <rect width="22.026" height="9.966" x="498.877" y="155.522" fill="#ff4f5e" stroke="#ff4f5e" stroke-linecap="round" stroke-width=".751" rx=".375"/>
    <path stroke="#ff4f5e" stroke-linecap="round" stroke-width=".751" d="M509.002 151.878v21.541"/>
    <rect width="22.026" height="19.493" x="235.676" y="110.048" fill="#2ecf7a" stroke="#2ecf7a" stroke-linecap="round" stroke-width=".751" rx=".375"/>
    <path stroke="#2ecf7a" stroke-linecap="round" stroke-width=".751" d="M245.799 103.165v41.356"/>
    <rect width="22.026" height="9.966" x="136.975" y="118.368" fill="#2ecf7a" stroke="#2ecf7a" stroke-linecap="round" stroke-width=".751" rx=".375"/>
    <path stroke="#2ecf7a" stroke-linecap="round" stroke-width=".751" d="M147.1 114.724v21.541"/>
    <rect width="22.026" height="14.73" x=".375" y="-.375" fill="#2ecf7a" stroke="#2ecf7a" stroke-linecap="round" stroke-width=".751" rx=".375" transform="matrix(1 0 0 -1 169.498 136.406)"/>
    <path stroke="#2ecf7a" stroke-linecap="round" stroke-width=".751" d="M179.998 142.045v-31.449"/>
    <rect width="22.026" height="26.77" x="-.375" y=".375" fill="#2ecf7a" stroke="#2ecf7a" stroke-linecap="round" stroke-width=".751" rx=".375" transform="matrix(-1 0 0 1 720.456 138.842)"/>
    <path stroke="#2ecf7a" stroke-linecap="round" stroke-width=".751" d="M710.707 132.062v33.926"/>
    <rect width="22.026" height="40.53" x="-.375" y=".375" fill="#2ecf7a" stroke="#2ecf7a" stroke-linecap="round" stroke-width=".751" rx=".375" transform="matrix(-1 0 0 1 586.327 165.537)"/>
    <path stroke="#2ecf7a" stroke-linecap="round" stroke-width=".751" d="M576.58 155.179v51.264"/>
    <rect width="22.026" height="40.53" x="334.375" y="82.524" fill="#ff4f5e" stroke="#ff4f5e" stroke-linecap="round" stroke-width=".751" rx=".375"/>
    <path stroke="#ff4f5e" stroke-linecap="round" stroke-width=".751" d="M344.5 71.791v51.264"/>
    <rect width="22.026" height="31.357" x="71.174" y="107.385" fill="#2ecf7a" stroke="#2ecf7a" stroke-linecap="round" stroke-width=".751" rx=".375"/>
    <path stroke="#2ecf7a" stroke-linecap="round" stroke-width=".751" d="M81.299 99.037v39.705"/>
    <rect width="22.026" height="21.141" x="-.375" y=".375" fill="#2ecf7a" stroke="#2ecf7a" stroke-linecap="round" stroke-width=".751" rx=".375" transform="matrix(-1 0 0 1 323.126 111.872)"/>
    <path stroke="#2ecf7a" stroke-linecap="round" stroke-width=".751" d="M313.377 113.56v26.833"/>
    <rect width="22.026" height="21.141" x="389.302" y="132.963" fill="#2ecf7a" stroke="#2ecf7a" stroke-linecap="round" stroke-width=".751" rx=".375" transform="rotate(180 389.302 132.963)"/>
    <path stroke="#2ecf7a" stroke-linecap="round" stroke-width=".751" d="M379.177 131.649v-26.832"/>
    <rect width="22.026" height="21.141" x="465.975" y="145.272" fill="#ff4f5e" stroke="#ff4f5e" stroke-linecap="round" stroke-width=".751" rx=".375"/>
    <path stroke="#ff4f5e" stroke-linecap="round" stroke-width=".751" d="M476.1 146.586v26.832"/>
</svg>
