<svg width="176" height="42" viewBox="0 0 176 42" fill="none" xmlns="http://www.w3.org/2000/svg" role="img" aria-labelledby="title">
  <title id="title">Trego</title>
  <rect width="42" height="42" rx="10" fill="#0A1224"/>
  <path d="M12 28.5L20.8 13.5L25.8 22L30.2 14.5L34 21" stroke="#4DA3FF" stroke-width="3" stroke-linecap="round" stroke-linejoin="round"/>
  <path d="M13 30H33" stroke="#C7E2FF" stroke-width="3" stroke-linecap="round"/>
  <path d="M58.36 31V13.84H51.76V10.6H68.8V13.84H62.2V31H58.36ZM71.24 31V15.4H74.72V18.1C75.72 16.2 77.42 15.2 79.64 15.2H80.84V18.76H79.28C76.52 18.76 74.96 20.32 74.96 23.08V31H71.24ZM90.68 31.3C85.82 31.3 82.4 27.94 82.4 23.2C82.4 18.52 85.64 15.1 90.2 15.1C94.76 15.1 97.82 18.22 97.82 22.78C97.82 23.3 97.76 23.82 97.7 24.16H86.06C86.42 26.68 88.22 28.12 90.74 28.12C92.72 28.12 94.04 27.34 94.82 25.9H97.46C96.56 29.2 94.1 31.3 90.68 31.3ZM86.12 21.58H94.18C93.88 19.48 92.36 18.16 90.2 18.16C88.04 18.16 86.54 19.42 86.12 21.58ZM108.46 37.3C104.14 37.3 101.14 35.02 100.78 31.54H104.38C104.8 33.16 106.36 34.12 108.52 34.12C111.16 34.12 112.78 32.62 112.78 29.98V28.42C111.7 30.04 110.02 30.94 107.92 30.94C103.6 30.94 100.42 27.7 100.42 23.08C100.42 18.46 103.6 15.1 107.98 15.1C110.2 15.1 111.94 16.06 113.02 17.8V15.4H116.5V29.86C116.5 34.42 113.38 37.3 108.46 37.3ZM108.58 27.76C111.16 27.76 112.96 25.84 112.96 23.02C112.96 20.23 111.16 18.28 108.58 18.28C106 18.28 104.17 20.23 104.17 23.02C104.17 25.84 106 27.76 108.58 27.76ZM128.28 31.3C123.42 31.3 119.88 27.91 119.88 23.2C119.88 18.49 123.42 15.1 128.28 15.1C133.14 15.1 136.68 18.49 136.68 23.2C136.68 27.91 133.14 31.3 128.28 31.3ZM128.28 28C131.04 28 132.93 26.05 132.93 23.2C132.93 20.35 131.04 18.4 128.28 18.4C125.52 18.4 123.63 20.35 123.63 23.2C123.63 26.05 125.52 28 128.28 28Z" fill="#F7FBFF"/>
  <path d="M144 31V10.6H147.72V31H144ZM153.28 31V15.4H156.76V17.68C157.84 15.94 159.61 15.1 161.77 15.1C165.46 15.1 167.98 17.62 167.98 21.73V31H164.26V22.18C164.26 19.78 162.97 18.4 160.78 18.4C158.47 18.4 157 20.02 157 22.54V31H153.28Z" fill="#9FCBFF"/>
</svg>
